<?xml version="1.0" encoding="UTF-8"?>
<svg width="1440" height="200" viewBox="0 0 1440 200" fill="none" xmlns="http://www.w3.org/2000/svg">
  <path d="M0 0L60 22.2C120 44.3 240 88.7 360 111C480 133.3 600 133.3 720 111C840 88.7 960 44.3 1080 22.2C1200 0 1320 0 1380 0H1440V200H1380C1320 200 1200 200 1080 200C960 200 840 200 720 200C600 200 480 200 360 200C240 200 120 200 60 200H0V0Z" fill="url(#paint0_linear)"/>
  <defs>
    <linearGradient id="paint0_linear" x1="720" y1="0" x2="720" y2="200" gradientUnits="userSpaceOnUse">
      <stop stop-color="#3B82F6" stop-opacity="0.1"/>
      <stop offset="1" stop-color="#3B82F6" stop-opacity="0"/>
    </linearGradient>
  </defs>
</svg>
